<svg xmlns="http://www.w3.org/2000/svg" viewBox="0 0 96 64" aria-hidden="true">
  <rect width="96" height="64" rx="8" fill="#1a1f71"/>
  <path fill="#fff" d="M22 45h-6l4-26h6l-4 26zm19.2-12.8c-.2-2.6-2.4-4.2-5.6-4.2-2.8 0-5 .9-5 .9l-.8 4s1.8-.9 4.2-.9c1.4 0 3 .4 3 1.8 0 .8-.6 1.2-1.8 1.8-2.6 1.2-4.2 2.4-4.4 4.6-.2 2.8 2.4 4.6 5.6 4.6 2.6 0 4.2-.6 4.2-.6l.8-4s-1.4.6-3.2.6c-1.2 0-2.6-.4-2.4-1.6 0-.6.6-1 2-1.8 2.6-1.2 4.2-2.4 4.4-4.8zM56 17h5.2L65 43h-6l-.4-4h-5l-1.8 4h-6L56 17zm.8 15.4h3.6l-.6-7.8-.2-1.2-.2 1.2-2.6 7.8zM79 17c-1.4 0-2.6.4-3.4 2L64.2 43h6.8l1.4-3.8h7.6L81 43h5.8L82.2 17H79zm-2 14.4 3-8 .4 8H77z"/>
</svg>
